Patient4_TMGait_0pt3_03_left_17_EMG.mot
version=1
nRows=23
nColumns=33
inDegrees=no
endheader
time	1LAddLong	2LGlutMax	3LGlutMed	4LIliopsoas	5LSemiMemb	6LBicFemLong	7LRecFem	8LVastMed	9LVastLat	10LGasMed	11LTibAnt	12lTibPost	13LPeroneusLong	14LSol	15LExtDigLong	16LFlexDigLong	17RAddLong	18RGlutMax	19RGlutMed	20RIliopsoas	21RSemiMemb	22RBicFemLong	23RRecFem	24RVastMed	25RVastLat	26RGasMed	27RTibAnt	28RTibPost	29RPeroneusLong	30RSol	31RExtDigLong	32RFlexDigLong
31.265	0.011597	-0.12054	0.031281	-0.016632	0.021057	-0.010681	0.011749	0.013428	-0.001526	0.000305	0.021667	0.008087	0.005951	0.02182	0.15015	0.000916	-0.099335	0.20325	-0.5751	0.028687	0.28046	0.052795	0.17639	-0.85037	-0.25146	0.018463	0.02655	0.27115	0.23789	1.2431	-0.002289	-0.000916
31.266	0.007935	-0.10849	0.020905	-0.008545	0.013733	0.000763	0.009003	0.012512	0.011749	0.003204	-0.069427	0.016479	-0.029755	0.012512	0.14862	0.018463	-0.034027	0.24002	0.43533	-0.06073	0.22919	-0.011749	0.30975	-0.77698	-0.10071	0.033264	0.009003	0.091858	0.14786	0.81665	-0.005341	0
31.267	0.002747	-0.12589	0.004883	0.013275	0.008545	0.009613	0.031891	0.007324	0.012054	-0.026398	-0.067291	0.004425	-0.017548	0.00412	0.059509	0.005951	0.062561	0.23239	0.9903	-0.062103	0.19684	-0.13992	0.33218	-0.47394	-0.2861	0.02655	-0.001068	-0.016785	0.10315	1.0878	-0.001984	0.001678
31.268	0.012207	-0.10925	-0.006409	-0.014496	0.010681	-0.000305	0.029755	0.011597	0.003052	-0.007782	-0.021667	0.002899	-0.042419	0.024872	-0.058441	0.005341	0.12024	0.23224	0.27115	-0.04715	-0.059509	-0.15732	0.26901	-0.44754	-0.44784	0	0.028992	-0.38711	0.49362	0.38238	0.000305	-0.006409
31.269	0.009613	-0.11459	-0.02243	0.000916	0.013428	0.011902	0.034485	0.014191	0.002747	-0.023804	-0.01709	-0.003967	0.038757	0.032196	-0.17593	0.00885	0.10315	0.15625	-0.045624	-0.023651	-0.37918	-0.013733	0.25162	-0.32211	-0.087128	-0.032196	0.020599	0.054474	0.81116	-0.45242	-0.00412	0.000305
31.27	0.014954	-0.13214	-0.024872	0.003967	0.010529	0.005188	0.019989	0.009766	0.001068	-0.036011	-0.0177	-0.001373	0.12466	0.022125	-0.22156	0.007935	-0.016327	0.12924	-0.70129	0.029144	-0.72083	0.224	0.34622	-0.089417	0.33447	-0.021667	0.011292	0.36087	0.74097	-0.25574	-0.005341	-0.000916
31.271	0.016632	-0.15747	0.003662	0.036774	0.010681	-0.004883	0.014496	0.009155	0.015564	-0.018768	0.027161	-0.011139	0.011902	-0.03006	0.019226	0.003815	-0.051422	0.082397	-0.44357	-0.011292	0.055389	0.13428	0.33875	-0.012665	0.42893	-0.002136	0.000305	0.11612	0.32455	0.53497	-0.005035	-0.00473
31.272	0.011444	-0.13534	0.029602	0.021362	0.020599	-0.036163	-0.007172	0.007629	0.014496	0.01297	0.054474	-0.00824	0.016327	-0.034485	0.33814	-0.005341	-0.048218	0.053253	0.54581	-0.072174	0.5957	-0.006866	0.22415	-0.043793	0.37048	-0.013885	0.013885	-0.014343	-0.10696	0.16296	-0.006409	-0.008698
31.273	0.014801	-0.11047	0.066986	0.019684	0.010529	-0.047302	-0.009918	0.00946	0.026398	0.007324	0.077362	-0.003662	0.012817	-0.023499	0.06424	-0.002136	-0.04715	-0.050964	1.0013	-0.068359	0.30411	-0.014801	0.16388	0.14694	0.34866	-0.000153	-0.002136	-0.017242	-0.25543	0.59876	-0.007477	0.001068
31.274	0.001831	-0.082397	0.099792	0.009155	0.020142	-0.053711	0.001984	0.009308	0.024719	-0.005798	0.14206	-0.007019	0.032043	0.001526	0.014343	0.001526	-0.056152	-0.09201	0.96847	-0.033112	-0.005188	0.010834	0.026245	0.41031	0.35675	0.003357	0.003052	-0.22354	0.24338	0.59509	-0.002441	-0.003815
31.275	-0.003052	-0.11765	-0.012665	-0.005493	0.014801	-0.041504	-0.010223	0.001221	0.034637	-0.037842	0.12192	-0.007477	0.073547	0.018768	-0.26428	0.011139	-0.055237	-0.14465	0.49408	-0.057526	-0.11169	0.052338	-0.1207	0.60288	0.5896	-0.014496	-0.009308	-0.29159	-0.072632	-0.19043	-0.001831	-0.014496
31.276	0.005493	-0.096893	-0.072021	-0.032654	0.022888	-0.044403	-0.008698	0.005188	0.033569	-0.037231	-0.21866	-0.007629	0.054474	-0.017395	-0.096741	0.00473	-0.018768	-0.17716	0.31281	-0.072021	0.036926	0.016174	0.16357	0.31998	0.16373	0.001831	-0.008392	0.21027	-0.61996	-0.45395	0	-0.018463
31.277	-0.005493	-0.070496	-0.038757	-0.014801	0.030975	-0.050812	-0.024109	0.007019	0.025635	-0.01709	-0.15015	-0.008087	-0.00412	-0.082397	-0.16739	0.005035	0.045624	-0.018158	1.0112	-0.041962	0.13748	0.002594	0.41168	-0.17227	-0.1831	-0.00061	0.009308	0.056458	-1.0332	-0.12253	-0.005951	-0.013428
31.278	0.003357	-0.061188	-0.036621	-0.020752	0.027618	-0.041962	-0.022736	0.005188	0.01236	0.017548	0.099335	-0.010986	-0.025024	-0.11322	-0.18738	0.010986	0.092621	0.22537	1.0887	-0.0383	0.061035	-0.003662	0.36072	-0.025024	-0.12024	0.014648	0.034332	-0.034485	-0.058289	-0.29907	-0.004883	-0.010376
31.279	0.005341	-0.11551	-0.031128	-0.002899	0.02182	-0.028381	-0.019073	0.005951	0.006104	0.007172	0.20844	-0.00473	-0.006104	-0.022736	-0.065308	0.005951	0.067139	0.2507	0.96603	0.044861	-0.032806	-0.05249	0.29373	0.1358	0.010071	-0.010986	0.072937	-0.057678	0.22583	-0.42496	-0.003967	-0.014496
31.28	0.002594	-0.1326	-0.022125	0.00351	0.019989	-0.028229	-0.025787	0.00412	0.014496	-0.016785	0.1088	0.005341	0.028839	0.044861	0.055695	0.013428	0.030975	0.070496	0.21484	0.060425	0.039215	-0.070953	0.11414	0.035248	0.1294	-0.031128	0.068207	-0.027313	0.28091	-0.53909	-0.004883	-0.009918
31.281	0.005951	-0.11246	0.006561	0.015564	0.009613	-0.006714	-0.015106	0.006104	0.014801	-0.030212	-0.31235	-0.009918	0.068817	0.014343	0.13397	0.01358	-0.040436	-0.11871	-0.88699	0.048981	0.020752	-0.13763	-0.057068	0.020905	0.10254	-0.029297	-0.04715	-0.009308	0.48294	-0.6366	-0.000305	-0.016022
31.282	-0.000458	-0.11108	0.005341	0.020599	0.019531	-0.009003	-0.018005	0.006409	0.008698	-0.019836	-0.1738	-0.00946	0.029907	0.020752	-0.03418	0.01358	-0.079956	-0.12024	-0.60821	0.027466	0.12482	-0.17014	-0.14435	0.37155	0.082855	-0.032654	-0.073242	-0.24872	0.016327	-0.56259	-0.003357	-0.002899
31.283	0.004425	-0.09964	0.033264	0.017242	-0.011292	-0.002136	-0.00946	0.006256	0.003052	-0.015106	-0.17822	-0.016937	0.03479	-0.021667	-0.090485	0.011902	-0.10239	-0.093079	-0.12131	-0.011597	0.25604	-0.074158	-0.289	0.40298	0.14984	-0.040894	0.025635	-0.09552	-0.28168	-0.47287	-0.006561	-0.007324
31.284	0.010834	-0.097809	0.022888	0.003967	0.019531	0.01297	-0.011749	0.001831	-0.002899	-0.016174	-0.028992	-0.012207	-0.000305	-0.047607	0.024109	0.006714	-0.084839	-0.085907	-0.011139	-0.029297	0.11307	-0.050507	-0.38086	0.21332	0.14877	-0.026245	0.10971	0.18204	-0.87097	-0.16419	-0.00473	-0.003052
31.285	-0.007782	-0.11673	-0.000458	-0.012665	-0.001068	0.02655	0.004272	0.00061	-0.007172	-0.017548	0.011902	-0.013428	0.020294	-0.014038	0.031433	0.015869	-0.053864	-0.082092	-0.41611	-0.002594	-0.084076	-0.042267	-0.11734	0.031586	0.036469	-0.002747	0.051422	0.10544	-0.020752	-0.070648	-0.002136	-0.000916
31.286	0.001678	-0.09201	0.024109	-0.006714	0.003052	0.018616	-0.010834	0.004425	-0.003052	-0.005188	-0.024719	-0.010834	0.016785	0.030823	0.056	0.003662	-0.033417	0.061951	-0.22385	-0.078278	-0.016022	-0.067291	0.13001	-0.18173	-0.06897	0.003052	0.004425	0.030518	0.76401	0.22781	-0.006561	-0.000916
31.287	-0.001221	-0.060883	0.015869	-0.001831	0.008545	0.007172	0.010986	0.001984	-0.000763	-0.000305	-0.052185	-0.015564	0.014801	0.009308	0.14542	0.003967	-0.009613	0.15427	-0.59494	-0.09079	-0.058899	-0.050354	0.063782	-0.48233	0.10559	-0.000305	-0.019379	-0.014801	0.1828	0.5278	-0.006104	-0.009918
